<?xml version="1.0" encoding="UTF-8"?>
<svg width="33px" height="36px" viewBox="0 0 33 36" version="1.1" xmlns="http://www.w3.org/2000/svg" xmlns:xlink="http://www.w3.org/1999/xlink">
    <!-- Generator: Sketch 51.1 (57501) - http://www.bohemiancoding.com/sketch -->
    <title>Calendar</title>
    <desc>Created with Sketch.</desc>
    <defs></defs>
    <g id="Calendar" stroke="none" stroke-width="1" fill="none" fill-rule="evenodd">
        <g fill-rule="nonzero">
            <rect id="Bounds" x="0" y="0" width="33" height="36"></rect>
            <g id="Group" transform="translate(4.000000, 2.000000)" fill="#45B0D8" stroke="#45B0D8" stroke-width="0.25">
                <path d="M24.6521739,23 L2.34782609,23 C1.05123913,23 0,21.9159737 0,20.5789474 L0,2.42105263 C0,1.08402632 1.05123913,0 2.34782609,0 L24.6521739,0 C25.9487609,0 27,1.08402632 27,2.42105263 L27,20.5789474 C27,21.9159737 25.9487609,23 24.6521739,23 Z M25.826087,2.42105263 C25.826087,1.75284211 25.3001739,1.21052632 24.6521739,1.21052632 L2.34782609,1.21052632 C1.69982609,1.21052632 1.17391304,1.75284211 1.17391304,2.42105263 L1.17391304,6.05263158 L25.826087,6.05263158 L25.826087,2.42105263 Z M25.826087,7.26315789 L1.17391304,7.26315789 L1.17391304,20.5789474 C1.17391304,21.2471579 1.69982609,21.7894737 2.34782609,21.7894737 L24.6521739,21.7894737 C25.3001739,21.7894737 25.826087,21.2471579 25.826087,20.5789474 L25.826087,7.26315789 Z M23.4782609,15.7368421 L22.3043478,15.7368421 C21.9803478,15.7368421 21.7173913,15.4662895 21.7173913,15.1315789 L21.7173913,13.9210526 C21.7173913,13.5869474 21.9803478,13.3157895 22.3043478,13.3157895 L23.4782609,13.3157895 C23.8028478,13.3157895 24.0652174,13.5869474 24.0652174,13.9210526 L24.0652174,15.1315789 C24.0652174,15.4662895 23.8028478,15.7368421 23.4782609,15.7368421 Z M23.4782609,11.5 L22.3043478,11.5 C21.9803478,11.5 21.7173913,11.2294474 21.7173913,10.8947368 L21.7173913,9.68421053 C21.7173913,9.3495 21.9803478,9.07894737 22.3043478,9.07894737 L23.4782609,9.07894737 C23.8028478,9.07894737 24.0652174,9.3495 24.0652174,9.68421053 L24.0652174,10.8947368 C24.0652174,11.2294474 23.8028478,11.5 23.4782609,11.5 Z M18.7826087,15.7368421 L17.6086957,15.7368421 C17.2846957,15.7368421 17.0217391,15.4662895 17.0217391,15.1315789 L17.0217391,13.9210526 C17.0217391,13.5869474 17.2846957,13.3157895 17.6086957,13.3157895 L18.7826087,13.3157895 C19.1071957,13.3157895 19.3695652,13.5869474 19.3695652,13.9210526 L19.3695652,15.1315789 C19.3695652,15.4662895 19.1071957,15.7368421 18.7826087,15.7368421 Z M18.7826087,11.5 L17.6086957,11.5 C17.2846957,11.5 17.0217391,11.2294474 17.0217391,10.8947368 L17.0217391,9.68421053 C17.0217391,9.3495 17.2846957,9.07894737 17.6086957,9.07894737 L18.7826087,9.07894737 C19.1071957,9.07894737 19.3695652,9.3495 19.3695652,9.68421053 L19.3695652,10.8947368 C19.3695652,11.2294474 19.1071957,11.5 18.7826087,11.5 Z M14.0869565,15.7368421 L12.9130435,15.7368421 C12.5884565,15.7368421 12.326087,15.4662895 12.326087,15.1315789 L12.326087,13.9210526 C12.326087,13.5869474 12.5884565,13.3157895 12.9130435,13.3157895 L14.0869565,13.3157895 C14.4115435,13.3157895 14.673913,13.5869474 14.673913,13.9210526 L14.673913,15.1315789 C14.673913,15.4662895 14.4115435,15.7368421 14.0869565,15.7368421 Z M14.0869565,11.5 L12.9130435,11.5 C12.5884565,11.5 12.326087,11.2294474 12.326087,10.8947368 L12.326087,9.68421053 C12.326087,9.3495 12.5884565,9.07894737 12.9130435,9.07894737 L14.0869565,9.07894737 C14.4115435,9.07894737 14.673913,9.3495 14.673913,9.68421053 L14.673913,10.8947368 C14.673913,11.2294474 14.4115435,11.5 14.0869565,11.5 Z M9.39130435,19.9736842 L8.2173913,19.9736842 C7.89280435,19.9736842 7.63043478,19.7031316 7.63043478,19.3684211 L7.63043478,18.1578947 C7.63043478,17.8231842 7.89280435,17.5526316 8.2173913,17.5526316 L9.39130435,17.5526316 C9.7158913,17.5526316 9.97826087,17.8231842 9.97826087,18.1578947 L9.97826087,19.3684211 C9.97826087,19.7031316 9.7158913,19.9736842 9.39130435,19.9736842 Z M9.39130435,15.7368421 L8.2173913,15.7368421 C7.89280435,15.7368421 7.63043478,15.4662895 7.63043478,15.1315789 L7.63043478,13.9210526 C7.63043478,13.5869474 7.89280435,13.3157895 8.2173913,13.3157895 L9.39130435,13.3157895 C9.7158913,13.3157895 9.97826087,13.5869474 9.97826087,13.9210526 L9.97826087,15.1315789 C9.97826087,15.4662895 9.7158913,15.7368421 9.39130435,15.7368421 Z M9.39130435,11.5 L8.2173913,11.5 C7.89280435,11.5 7.63043478,11.2294474 7.63043478,10.8947368 L7.63043478,9.68421053 C7.63043478,9.3495 7.89280435,9.07894737 8.2173913,9.07894737 L9.39130435,9.07894737 C9.7158913,9.07894737 9.97826087,9.3495 9.97826087,9.68421053 L9.97826087,10.8947368 C9.97826087,11.2294474 9.7158913,11.5 9.39130435,11.5 Z M4.69565217,19.9736842 L3.52173913,19.9736842 C3.19715217,19.9736842 2.93478261,19.7031316 2.93478261,19.3684211 L2.93478261,18.1578947 C2.93478261,17.8231842 3.19715217,17.5526316 3.52173913,17.5526316 L4.69565217,17.5526316 C5.02023913,17.5526316 5.2826087,17.8231842 5.2826087,18.1578947 L5.2826087,19.3684211 C5.2826087,19.7031316 5.02023913,19.9736842 4.69565217,19.9736842 Z M4.69565217,15.7368421 L3.52173913,15.7368421 C3.19715217,15.7368421 2.93478261,15.4662895 2.93478261,15.1315789 L2.93478261,13.9210526 C2.93478261,13.5869474 3.19715217,13.3157895 3.52173913,13.3157895 L4.69565217,13.3157895 C5.02023913,13.3157895 5.2826087,13.5869474 5.2826087,13.9210526 L5.2826087,15.1315789 C5.2826087,15.4662895 5.02023913,15.7368421 4.69565217,15.7368421 Z M12.9130435,17.5526316 L14.0869565,17.5526316 C14.4115435,17.5526316 14.673913,17.8231842 14.673913,18.1578947 L14.673913,19.3684211 C14.673913,19.7031316 14.4115435,19.9736842 14.0869565,19.9736842 L12.9130435,19.9736842 C12.5884565,19.9736842 12.326087,19.7031316 12.326087,19.3684211 L12.326087,18.1578947 C12.326087,17.8231842 12.5884565,17.5526316 12.9130435,17.5526316 Z" id="Shape"></path>
            </g>
        </g>
    </g>
</svg>