<?xml version="1.0" encoding="UTF-8"?>
<svg width="33px" height="36px" viewBox="0 0 33 36" version="1.1" xmlns="http://www.w3.org/2000/svg" xmlns:xlink="http://www.w3.org/1999/xlink">
    <!-- Generator: Sketch 51.1 (57501) - http://www.bohemiancoding.com/sketch -->
    <title>Shopping</title>
    <desc>Created with Sketch.</desc>
    <defs></defs>
    <g id="Shopping" stroke="none" stroke-width="1" fill="none" fill-rule="evenodd">
        <g fill-rule="nonzero">
            <rect id="Bounds" x="0" y="0" width="33" height="36"></rect>
            <g id="Group" transform="translate(1.000000, 1.000000)" fill="#45B0D8" stroke="#45B0D8" stroke-width="0.25">
                <path d="M11.5,24 C10.125,24 9,25.125 9,26.5 C9,27.875 10.125,29 11.5,29 C12.875,29 14,27.875 14,26.5 C14,25.125 12.875,24 11.5,24 Z M11.5,27.75 C10.8125,27.75 10.25,27.1875 10.25,26.5 C10.25,25.8125 10.8125,25.25 11.5,25.25 C12.1875,25.25 12.75,25.8125 12.75,26.5 C12.75,27.1875 12.1875,27.75 11.5,27.75 Z" id="Shape"></path>
                <path d="M23.5,24 C22.125,24 21,25.125 21,26.5 C21,27.875 22.125,29 23.5,29 C24.875,29 26,27.875 26,26.5 C26,25.125 24.875,24 23.5,24 Z M23.5,27.75 C22.8125,27.75 22.25,27.1875 22.25,26.5 C22.25,25.8125 22.8125,25.25 23.5,25.25 C24.1875,25.25 24.75,25.8125 24.75,26.5 C24.75,27.1875 24.1875,27.75 23.5,27.75 Z" id="Shape"></path>
                <path d="M28.3458647,4.99120235 C27.868891,4.38416422 27.0512218,4.04692082 26.2335526,4.04692082 L7.35902256,4.04692082 L7.08646617,2.29325513 C6.88204887,1.01173021 5.72368421,0 4.36090226,0 L0,0 L0,1.34897361 L4.36090226,1.34897361 C5.04229323,1.34897361 5.65554511,1.82111437 5.72368421,2.49560117 L8.58552632,20.7741935 C8.85808271,22.0557185 10.0164474,23 11.3110902,23 L25.8928571,23 L25.8928571,21.6510264 L11.3110902,21.6510264 C10.6296992,21.6510264 10.0845865,21.1788856 9.94830827,20.5043988 L9.67575188,18.8856305 L24.8026316,18.8856305 C26.0972744,18.8856305 27.2556391,17.941349 27.5281955,16.5249267 L28.9591165,7.08211144 C29.0953947,6.34017595 28.8909774,5.59824047 28.3458647,4.99120235 Z M27.5963346,6.94721408 L26.1654135,16.3900293 C26.0291353,17.1319648 25.4840226,17.6041056 24.8026316,17.6041056 L9.47133459,17.6041056 L7.56343985,5.46334311 L26.2335526,5.46334311 C26.6423872,5.46334311 27.0512218,5.66568915 27.3237782,5.93548387 C27.5963346,6.13782991 27.6644737,6.54252199 27.5963346,6.94721408 Z" id="Shape"></path>
            </g>
        </g>
    </g>
</svg>