<?xml version="1.0" encoding="UTF-8"?>
<svg width="33px" height="36px" viewBox="0 0 33 36" version="1.1" xmlns="http://www.w3.org/2000/svg" xmlns:xlink="http://www.w3.org/1999/xlink">
    <!-- Generator: Sketch 51.1 (57501) - http://www.bohemiancoding.com/sketch -->
    <title>Wallet</title>
    <desc>Created with Sketch.</desc>
    <defs></defs>
    <g id="Wallet" stroke="none" stroke-width="1" fill="none" fill-rule="evenodd">
        <g fill-rule="nonzero">
            <rect id="Bounds" x="0" y="0" width="33" height="36"></rect>
            <g id="Group" transform="translate(5.000000, 1.000000)" fill="#45B0D8" stroke="#45B0D8" stroke-width="0.25">
                <path d="M26,20.1947107 C26,21.7443525 24.7350435,23 23.173913,23 L2.82608696,23 C1.26495652,23 0,21.7443525 0,20.1947107 L0,3.92403292 C0,2.68465612 1.01230435,1.6798015 2.26086957,1.6798015 L13.6618696,1.6798015 L18.2395652,0.0336577543 C18.5295217,-0.0712600646 18.8505652,0.077420267 18.9562609,0.364120831 L19.4383913,1.6798015 L21.4782609,1.6798015 C22.7268261,1.6798015 23.7391304,2.68465612 23.7391304,3.92403292 L23.7391304,5.04614863 C24.9876957,5.04614863 26,6.05100325 26,7.29038005 L26,20.1947107 Z M2.26086957,2.80191721 C1.63686957,2.80191721 1.13043478,3.30462505 1.13043478,3.92403292 C1.13043478,4.54344079 1.63686957,5.04614863 2.26086957,5.04614863 L4.20804348,5.04614863 L4.31486957,5.04614863 C4.32221739,5.04334334 4.32673913,5.03717171 4.33408696,5.03436642 L10.5413043,2.80191721 L2.26086957,2.80191721 Z M18.6962609,2.90346868 L18.096,1.26293552 L18.0954348,1.26293552 L16.9361739,1.6798015 L16.9378696,1.6798015 L13.8212609,2.80191721 L13.8156087,2.80191721 L7.57617391,5.04614863 L19.4807826,5.04614863 L18.6962609,2.90346868 Z M22.6086957,3.92403292 C22.6086957,3.30462505 22.1022609,2.80191721 21.4782609,2.80191721 L19.8487391,2.80191721 L20.6705652,5.04614863 L22.6086957,5.04614863 L22.6086957,3.92403292 Z M23.7391304,6.16826434 L2.26086957,6.16826434 C1.84713043,6.16826434 1.46391304,6.04988114 1.13043478,5.85687723 L1.13043478,20.1947107 C1.13043478,21.1243836 1.89008696,21.8778843 2.82608696,21.8778843 L23.173913,21.8778843 C24.1104783,21.8778843 24.8695652,21.1243836 24.8695652,20.1947107 L24.8695652,16.2673057 L22.6086957,16.2673057 C21.3601304,16.2673057 20.3478261,15.2624511 20.3478261,14.0230743 C20.3478261,12.7836975 21.3601304,11.7788429 22.6086957,11.7788429 L24.8695652,11.7788429 L24.8695652,7.29038005 C24.8695652,6.67097218 24.3631304,6.16826434 23.7391304,6.16826434 Z M24.8695652,15.14519 L24.8695652,12.9009586 L22.6086957,12.9009586 C21.9846957,12.9009586 21.4782609,13.4036664 21.4782609,14.0230743 C21.4782609,14.6424822 21.9846957,15.14519 22.6086957,15.14519 L24.8695652,15.14519 Z M22.6086957,13.4620165 L23.7391304,13.4620165 L23.7391304,14.5841322 L22.6086957,14.5841322 L22.6086957,13.4620165 Z" id="Shape"></path>
            </g>
        </g>
    </g>
</svg>